<svg xmlns="http://www.w3.org/2000/svg" width="640" height="640" viewBox="0 0 640 640">
  <rect width="640" height="640" fill="#f7faf9"/>
  <rect x="56" y="56" width="528" height="528" rx="18" fill="#ffffff" stroke="#d7e4df" stroke-width="3"/>
  <rect x="112" y="112" width="122" height="122" fill="#111827"/>
  <rect x="406" y="112" width="122" height="122" fill="#111827"/>
  <rect x="112" y="406" width="122" height="122" fill="#111827"/>
  <rect x="142" y="142" width="62" height="62" fill="#ffffff"/>
  <rect x="436" y="142" width="62" height="62" fill="#ffffff"/>
  <rect x="142" y="436" width="62" height="62" fill="#ffffff"/>
  <g fill="#00a870">
    <rect x="286" y="112" width="32" height="32"/>
    <rect x="330" y="112" width="32" height="32"/>
    <rect x="286" y="158" width="76" height="32"/>
    <rect x="270" y="250" width="32" height="32"/>
    <rect x="322" y="250" width="84" height="32"/>
    <rect x="450" y="270" width="32" height="32"/>
    <rect x="270" y="322" width="32" height="84"/>
    <rect x="322" y="322" width="32" height="32"/>
    <rect x="374" y="322" width="32" height="84"/>
    <rect x="430" y="350" width="76" height="32"/>
    <rect x="270" y="456" width="84" height="32"/>
    <rect x="406" y="440" width="32" height="32"/>
    <rect x="470" y="430" width="42" height="42"/>
    <rect x="390" y="500" width="122" height="28"/>
  </g>
  <text x="320" y="300" text-anchor="middle" font-family="Arial, sans-serif" font-size="24" fill="#111827" font-weight="700">微信收款码</text>
  <text x="320" y="336" text-anchor="middle" font-family="Arial, sans-serif" font-size="18" fill="#6b7280">请替换为真实二维码</text>
</svg>
